<svg viewBox="0 0 545.36 494.5" xmlns="http://www.w3.org/2000/svg" xmlns:xlink="http://www.w3.org/1999/xlink"><linearGradient id="a" gradientUnits="userSpaceOnUse" x1="17.56" x2="91.6" y1="486.85" y2="486.85"><stop offset="0" stop-color="#091e42"></stop><stop offset=".09" stop-color="#091e42" stop-opacity=".91"></stop><stop offset="1" stop-color="#091e42" stop-opacity="0"></stop></linearGradient><linearGradient id="b" gradientUnits="userSpaceOnUse" x1="413.87" x2="414.87" y1="422.98" y2="422.98"><stop offset=".22" stop-color="#fff"></stop><stop offset=".33" stop-color="#e8f1ff"></stop><stop offset=".57" stop-color="#accdff"></stop><stop offset=".91" stop-color="#4d93ff"></stop><stop offset="1" stop-color="#3384ff"></stop></linearGradient><linearGradient id="c" gradientUnits="userSpaceOnUse" x1="137.34" x2="477.18" y1="241.52" y2="241.52"><stop offset="0" stop-color="#ff991f"></stop><stop offset="1" stop-color="#ffc400"></stop></linearGradient><clipPath id="d"><path d="m148.01 307.41v-200.66l312.02-26.2v251.82z"></path></clipPath><linearGradient id="e" gradientUnits="userSpaceOnUse" x1="203.39" x2="203.39" y1="490.79" y2="315.16"><stop offset="0" stop-color="#4c9aff" stop-opacity=".6"></stop><stop offset=".18" stop-color="#3b8eff" stop-opacity=".69"></stop><stop offset=".56" stop-color="#0e6fff" stop-opacity=".93"></stop><stop offset=".67" stop-color="#0065ff"></stop></linearGradient><linearGradient id="f" gradientUnits="userSpaceOnUse" x1="146.81" x2="146.81" y1="436.68" y2="362.03"><stop offset="0" stop-color="#4c9aff"></stop><stop offset="1" stop-color="#0065ff"></stop></linearGradient><linearGradient id="g" gradientUnits="userSpaceOnUse" x1="140.66" x2="194.91" y1="392.44" y2="392.44"><stop offset="0" stop-color="#0052cc"></stop><stop offset="1" stop-color="#2684ff"></stop></linearGradient><linearGradient id="h" gradientUnits="userSpaceOnUse" x1="205.82" x2="249.48" y1="299" y2="299"><stop offset="0" stop-color="#00875a"></stop><stop offset=".38" stop-color="#02895c"></stop><stop offset=".56" stop-color="#0a9062"></stop><stop offset=".7" stop-color="#179c6d"></stop><stop offset=".82" stop-color="#29ae7d"></stop><stop offset=".93" stop-color="#41c490"></stop><stop offset="1" stop-color="#57d9a3"></stop></linearGradient><linearGradient id="i" gradientUnits="userSpaceOnUse" x1="208.29" x2="249.12" y1="263.65" y2="263.65"><stop offset="0" stop-color="#36b37e"></stop><stop offset="1" stop-color="#79f2c0"></stop></linearGradient><linearGradient id="j" gradientTransform="matrix(.99041327 -.13813602 .13813602 .99041327 152.18 472.51)" gradientUnits="userSpaceOnUse" x1="-128.45" x2="-96" y1="-41.54" y2="-41.54"><stop offset=".35" stop-color="#ffab00"></stop><stop offset="1" stop-color="#ffc400"></stop></linearGradient><linearGradient id="k" gradientTransform="matrix(.99041327 -.13813602 .13813602 .99041327 152.18 472.51)" gradientUnits="userSpaceOnUse" x1="-72.65" x2="-94.41" y1="-76.67" y2="-54.9"><stop offset="0" stop-color="#ffc400"></stop><stop offset=".56" stop-color="#ff991f"></stop></linearGradient><ellipse cx="54.58" cy="486.85" fill="url(#a)" opacity=".25" rx="37.02" ry="7.64"></ellipse><path d="m414.85 423v-.05h-.51-.06zm-.66 0h.1-.39z" fill="url(#b)"></path><path d="m465.15 62.92-320.37 30.47c-4.12.39-7.44 4.95-7.44 10.17v222c0 5.23 3.32 9.81 7.44 10.23l100.69 10.42v63.47l79.74 10.53-.54-65.8 140.48 14.53a10.7 10.7 0 0 0 12-10.87v-284.18a10.8 10.8 0 0 0 -12-10.97z" fill="url(#c)"></path><path d="m148.01 307.41v-200.66l312.02-26.2v251.82z" fill="#b2d4ff"></path><g clip-path="url(#d)"><path d="m260.11 111.48-67.96 4.98v180.34l67.96 4.71z" fill="#fff"></path><path d="m443.58 314.23-172.17-11.93v-116.86l172.17-3.03z" fill="#fff"></path><path d="m289.97 284.98v-81.3l135.05-2.39v93.05z" fill="#deebff"></path><path d="m443.58 164.31-172.17 5.09v-58.75l172.17-12.62z" fill="#fff"></path><path d="m309.9 137.83c0 7.62-5.49 14-12.2 14.3s-12-5.57-12-13.06 5.34-13.88 12-14.29 12.2 5.43 12.2 13.05z" fill="#deebff"></path><path d="m377.8 120.08 7.87 14.07-7.87 14.88-15.48.64-7.61-13.93 7.61-14.71z" fill="#deebff"></path><path d="m330.49 122.77 14.8 27.39-29.29 1.22z" fill="#b2d4ff"></path><path d="m426.39 147.01-28.61 1.19v-29.57l28.61-1.77z" fill="#b2d4ff"></path><path d="m192.15 116.46v180.05" fill="none"></path></g><path d="m244.89 315.16 80.49 6.44v-112a40.25 40.25 0 0 0 -41.51-40.23 40.25 40.25 0 0 0 -39 40.23z" fill="#0065ff"></path><path d="m254.71 183.23c3 12 9 23.91 18.29 31.69 11.95 10 19.23 4.75 31.31 14.57 20.46 16.63 15.88 45.55 21.08 55.77v-75.7a40.25 40.25 0 0 0 -41.51-40.23 40.15 40.15 0 0 0 -29.17 13.9z" fill="#091e42" opacity=".15"></path><path d="m325.38 321.6v-23.7l-80.12 17.29z" fill="#0049b0"></path><path d="m244.89 315.16 80.49 6.44-152.79 169.19-91.19-15.64z" fill="url(#e)"></path><g fill="#d4b696"><path d="m178.59 306.17c-1.1-.21-2-2.11-1.58-3.63a3.58 3.58 0 0 1 1.8-2.12c.89-.48 1.19-.18 2.25-.52 2.16-.7 3.09-2.67 3.59-2.39.12.07.23.28.15.92a.5.5 0 0 1 .37.19c.17.28-.18.78-.35 1a40.14 40.14 0 0 1 -3.2 4.2c-1.62 1.64-2.48 2.45-3.03 2.35z"></path><path d="m179.81 297.91a3.33 3.33 0 0 0 -1.29 1.23c-.52.86-2.13 3.54-1.4 4.18.35.31 1.09 0 1.43-.2.67-.4.48-1.44 1.13-2 .14-.13.21-.2.36-.35.35-.36.53-.54.49-.65s-.66-.06-.84-.34c-.33-.48 1-1.78.77-2s-.46.06-.65.13z"></path><path d="m184.15 301.94a5.94 5.94 0 0 1 -1.68 1.4c-2.2 1.53-3.32 2.84-3.47 2.7s.24-.56.43-.82c1.47-2.09 4.84-6.11 5.48-5.65.3.22-.12 1.5-.76 2.37z"></path><path d="m176.92 303.91 1.07 4.44 3.53-.66-.45-3.78z"></path><path d="m130.77 294.5c1.08.32 2.72-1 3.06-2.51a3.58 3.58 0 0 0 -.64-2.71c-.57-.83-1-.7-1.77-1.49-1.6-1.61-1.54-3.78-2.11-3.76-.14 0-.33.14-.55.75a.5.5 0 0 0 -.41 0c-.28.17-.2.78-.15 1.06a40.14 40.14 0 0 0 .94 5.2c.72 2.2 1.1 3.3 1.63 3.46z"></path><path d="m133.44 286.58a3.33 3.33 0 0 1 .59 1.68c.07 1 .29 4.12-.65 4.36-.45.12-1-.49-1.19-.83-.41-.66.23-1.5-.09-2.31-.07-.18-.1-.28-.16-.47-.15-.48-.23-.72-.15-.8s.61.24.9.08c.51-.28-.08-2 .24-2.16.16-.04.42.33.51.45z"></path><path d="m127.74 288.2a5.94 5.94 0 0 0 .86 2c1.26 2.36 1.67 4 1.87 4s0-.61 0-.93c-.36-2.53-1.53-7.65-2.31-7.53-.39.06-.59 1.4-.42 2.46z"></path><path d="m129.76 292.86-1.21 3.36 3.86.59 1.42-4.83z"></path></g><path d="m142.06 362a74.09 74.09 0 0 0 -1.39 7.69c-.52 4.11-.65 7.86-.29 17.93.14 3.85.35 8.79.69 14.54q-.23 3.59-.36 7.3a258.34 258.34 0 0 0 .46 27.11l5.38.07q.73-12 2-24.63.47-4.59 1-9.09c.23-1.92.62-5 1.15-8.78 2.43-17.3 4.07-21.8 1.38-26.1-1.08-1.68-3.6-4.54-10.02-6.04z" fill="url(#f)"></path><path d="m159 361.27a272.73 272.73 0 0 1 19.58 28.66 272.7 272.7 0 0 1 16.31 32.14l-5.35 1.53c-1.85-2.48-4.17-5.59-6.84-9.18-5-6.68-6.16-8.35-7.57-10.83a54.78 54.78 0 0 1 -4.32-9.76l-7.58-4.07c-7.89-4.26-14.7-8-19.44-13.34-1.81-2-3.28-4.24-3.15-6.71 0-.47.19-1.37.51-3.14s.63-3.31.83-4.3a55.66 55.66 0 0 0 17-1z" fill="url(#g)"></path><path d="m193.94 418.2a37.81 37.81 0 0 0 2.73 5.56 6.51 6.51 0 0 0 6.37 3.12l4.82-.58.26.8-6.73 3.72c-.69.06-2.64.25-2.74.91 0 .14 0 .35.4.64q-.92.47-1.92.92a1.5 1.5 0 0 1 -1.86-.54c-1.87-2.82-6.91-10.46-7.4-11.61z" fill="#253858"></path><path d="m146.94 433.58c-.15.78-.31 2.76-.41 4.74a7.17 7.17 0 0 0 4 6.84l3.07 1.48-.19.74-7-.45c-.56-.3-2.15-1.1-2.55-.65-.09.1-.14.29 0 .69-1-.1-2-.23-3-.41l-.37-.48c0-.31 0-.69.06-1.13.16-4 0-10.72.25-12.1z" fill="#253858"></path><path d="m161.51 335.6a150.3 150.3 0 0 1 -16.16-1.87l-.83-.38-.4-.19c-3.36-1.64-11.21-6.28-13.86-16-3-11 2.91-19.72 3.76-20.95l-5.92-1c-1.6 2.7-6.27 11.35-4.41 22.26 1.67 9.75 7.65 16 10.34 18.81a41.92 41.92 0 0 0 7.28 6.05 35.67 35.67 0 0 1 .41 20.83l19.23.62c-2.41-2.87-2.71-5-2.53-6.44.41-3.22 3.48-4.63 3.71-8.45a8.18 8.18 0 0 0 -.64-3.62c2.3-.42 12-2.44 18.4-11.35 9.27-12.81 3.27-27.91 2.88-28.83l-6 3.27a27.32 27.32 0 0 1 1.68 10.14c-.57 9.39-8.67 17.28-16.94 17.1z" fill="#0065ff"></path><path d="m154.77 321.06a5 5 0 0 1 -.7.37 5.28 5.28 0 0 0 -1.85 1.27c-.87 1 .24 2.31-.11 4.67a7.2 7.2 0 0 0 -.06 1.84 6.91 6.91 0 0 0 .14.87c.15.7.11 2.22-.63 5.69l.93-.55 2.65-2c1.74-2 2.15-2.36 1.88-3.37-.33-1.21-.9-3.33-.85-3.43.51-.86 1.36-1.23.45-1.86-.52-.36-.91-.61-1-.68-.45-.15-.87-.81-.85-2.82z" fill="#d4b696"></path><path d="m152.28 322.63a30.53 30.53 0 0 1 1.72 12.64q0 .21 0 .42a9 9 0 0 1 -11.2 7.91l-.55-.17h-.09a5.82 5.82 0 0 1 -3.22-8.15 22.08 22.08 0 0 0 1.94-5.55c1-4.76-.14-7.62 2.22-10a10.84 10.84 0 0 1 5.54-2.59 5.67 5.67 0 0 1 3.21.06 6 6 0 0 1 2.15 1.46 6.33 6.33 0 0 1 1.41 2.3 9.73 9.73 0 0 0 -3.09 1.75z" fill="#172b4d"></path><ellipse cx="171.5" cy="436.68" fill="#091e42" opacity=".15" rx="36.63" ry="9.24" transform="matrix(.96292752 -.26976024 .26976024 .96292752 -111.43 62.44)"></ellipse><path d="m89.55 206.46h4.09v6.72h-4.09z" fill="#48cc8c"></path><path d="m149.2 59.5h4.09v6.72h-4.09z" fill="#48cc8c"></path><path d="m71.16 98.36h4.09v6.72h-4.09z" fill="#165ecc" transform="matrix(.70710678 -.70710678 .70710678 .70710678 -50.48 81.56)"></path><path d="m402.8 50.12h4.09v6.72h-4.09z" fill="#48cc8c" transform="matrix(.70710678 -.70710678 .70710678 .70710678 80.76 301.94)"></path><path d="m227.65 0h4.09v6.72h-4.09z" fill="#ffc400"></path><path d="m506.88 146.65h4.09v6.72h-4.09z" fill="#165ecc" transform="matrix(.70710678 -.70710678 .70710678 .70710678 42.99 403.81)"></path><path d="m518.31 98.36h4.09v6.72h-4.09z" fill="#48cc8c" transform="matrix(.70710678 -.70710678 .70710678 .70710678 80.48 397.74)"></path><path d="m50.44 158.26h4.09v6.72h-4.09z" fill="#ffc400" transform="matrix(.70710678 .70710678 -.70710678 .70710678 129.65 10.22)"></path><path d="m250.17 43.27h4.09v6.72h-4.09z" fill="#165ecc" transform="matrix(.70710678 .70710678 -.70710678 .70710678 106.85 -164.69)"></path><path d="m347.52 17.75h4.09v6.72h-4.09z" fill="#165ecc" transform="matrix(.70710678 .70710678 -.70710678 .70710678 117.31 -241)"></path><path d="m539.49 154.43h4.09v6.72h-4.09z" fill="#ffc400" transform="matrix(.70710678 .70710678 -.70710678 .70710678 270.19 -336.71)"></path><path d="m102.82 140c0 3.55-4.39 3.55-4.39 7.1s4.39 3.55 4.39 7.09-4.39 3.55-4.39 7.1 4.39 3.55 4.39 7.1-4.39 3.55-4.39 7.1" fill="none" stroke="#0065ff" stroke-miterlimit="10" stroke-width="2.92"></path><path d="m291.54 3.36c0 3.55-4.39 3.55-4.39 7.1s4.39 3.55 4.39 7.09-4.39 3.55-4.39 7.1 4.39 3.55 4.39 7.1-4.39 3.55-4.39 7.1" fill="none" stroke="#0065ff" stroke-miterlimit="10" stroke-width="2.92"></path><path d="m515.24 204.39c0 3.55-4.39 3.55-4.39 7.1s4.39 3.55 4.39 7.09-4.39 3.55-4.39 7.1 4.39 3.55 4.39 7.1-4.39 3.55-4.39 7.1" fill="none" stroke="#0065ff" stroke-miterlimit="10" stroke-width="2.92"></path><path d="m212.77 286.5a25.29 25.29 0 0 1 -5.68-5 26 26 0 0 1 -5.56-12.3c.73-3.65 2.82-11 9.17-14.86 2.85-1.73 7.42-3.26 8.63-1.88s-2.7 6.51-3.56 7.68l-8.07 9.38a42.95 42.95 0 0 1 5.54 11.48z" fill="#f1dad5"></path><ellipse cx="236.9" cy="363.04" fill="#091e42" opacity=".15" rx="24.88" ry="9.24"></ellipse><path d="m214.14 278.06a12.73 12.73 0 0 1 .57-1.7 13.2 13.2 0 0 1 1-1.87c.4.11 1 .27 1.84.41s1.23.17 1.51.2c1.63.21 4.74.54 13.11 1.1a21.72 21.72 0 0 1 4.89 9c5.68 20.72 6.81 28.83 6.81 28.83s2.28 15.39 4.52 32.84a18.82 18.82 0 0 1 -3.64 1.86 11.24 11.24 0 0 1 -2.81.59 39.52 39.52 0 0 1 -5.75-25.07 72 72 0 0 0 -3.75-12.6c-1.19-3-4.9-12.21-6.78-11.85s-.4 9.18-.24 25.69c.08 8.89 0 16.17 0 21a5.14 5.14 0 0 1 -4 .4 5.5 5.5 0 0 1 -2.55-1.37 79.67 79.67 0 0 1 -1.31-7.94c-.16-1.45-.24-2.63-.33-4.3-.16-2.8-.34-6.73-.44-11.65-.82-9.86-1-13.24-1.05-14.19a21.73 21.73 0 0 0 -.2-2.54c0-.29-.09-.57-.18-1-.6-3-3.25-15.74-2.55-20.36a34 34 0 0 1 1.33-5.48z" fill="#f0d0b4"></path><path d="m248.52 346.21a9.86 9.86 0 0 1 -4.1 2.23 11.47 11.47 0 0 1 -3.87.36c.83 3 1.63 5.4 2.21 7 1.24 3.5 2.32 5.91 2.63 9.64.07.8.08 1.46.08 1.9h4.18l.7-.64 1.11.61h10.64c.67 0 1.14-.53.93-1.05l-4.24-1.1c-4.41-1.15-7.62-4.28-8.23-8.05-.41-2.52-.88-5.3-1.28-7.29q-.37-1.82-.76-3.61z" fill="#172b4d"></path><path d="m218.41 345a10.86 10.86 0 0 0 7.89-.1l-.2 12.5 2.15.09c.75 0 1.16.74.72 1.26l-3 3.11a5.25 5.25 0 0 1 -2.09 2.81 3.44 3.44 0 0 1 -1.45.56 3.34 3.34 0 0 1 -2.05-.41c-1.19-.73-1.14-2.61-1.23-5.92-.06-2.43-.24-4.86-.34-7.29-.02-1.61-.14-3.84-.4-6.61z" fill="#172b4d"></path><path d="m268.21 236.36c-.47-.34-.71-.3-.82-.55s.21-.93 1-1.87a18.22 18.22 0 0 1 3.57-3.35 13.24 13.24 0 0 1 1.66-1c.5-.25 2.2-1.07 2.56-.74.2.19.13.62-.29.84s-.09 0-.76.36c-.31.16-2.11 1.42-1.66 1.85.07.07.18.1.25.17a.62.62 0 0 1 .13.3c.09.25.31.33.43.45.38.36.06 1.31 0 1.42a2.74 2.74 0 0 1 -1.7 1.53 3.82 3.82 0 0 1 -1.47 1.63c-.45.27-1.1.65-1.66.42s-.45-.82-1.24-1.46z" fill="#f1dad5"></path><path d="m213.34 278.24q-1.78 6.91-3.34 14.44c-1.91 9.33-3.25 18.2-4.18 26.5a38.82 38.82 0 0 0 6.19 2.55c14.16 4.45 26.5-.69 28.68-1.64a41.08 41.08 0 0 0 8.79-5.23c-3.2-13.3-6-23-7-25.32a40.2 40.2 0 0 0 -3.09-6.26 40.92 40.92 0 0 0 -7.27-8.8z" fill="url(#h)"></path><path d="m216.6 233.38c1.51-1.78 5.51-2 7.64-.41a6.18 6.18 0 0 1 .59.54c3 2.89 5.46 5.19 5.32 8a6.27 6.27 0 0 1 -.25 1.44 3.52 3.52 0 0 1 1.78 1c1.32 1.51.91 4.09-.22 5.63a5.88 5.88 0 0 1 -7.26 1.42 8.42 8.42 0 0 1 -1.11-.8c-.38-.41-.95-1.05-1.58-1.87-3.11-3.99-7.51-11.92-4.91-14.95z" fill="#172b4d"></path><path d="m221.34 232.8a20.81 20.81 0 0 1 4.3 4.65c.13.23.17.34.71.51s1.21.16 1.15.55-.7 1-.72 1.32l1.29 4a1.29 1.29 0 0 1 -.55 1.5l-1 .63-6.38 3.9a56.68 56.68 0 0 0 1.23-8q.06-.75.1-1.48a6 6 0 0 0 1.2-2.88 6.41 6.41 0 0 0 -.33-2.88 6.59 6.59 0 0 0 -1-1.82z" fill="#f1dad5"></path><path d="m225.32 253-8.19.74a24.7 24.7 0 0 0 -.77-8.51l8.19-.74z" fill="#f1dad5"></path><path d="m208.29 256.08 1.39-1.2a15.51 15.51 0 0 1 4-2.22c4-1.46 12.08-1.71 17.45-2.06a83 83 0 0 0 9.1-.93 65.76 65.76 0 0 0 11.25-2.93c1.07-.81 2.53-1.91 4.29-3.2 4.73-3.45 6.62-4.58 9.68-7.11 1.09-.9 2.48-2.11 4-3.63a8.39 8.39 0 0 1 .7 4.49 43.79 43.79 0 0 1 -13.67 13.88 60.32 60.32 0 0 1 -10.37 5 80.43 80.43 0 0 1 -11.64 3.58 9.51 9.51 0 0 1 1.49 3.18c.5 2 0 3-.3 5.89a46.8 46.8 0 0 0 0 9.15s-3 1.84-11.56 1.84a69.32 69.32 0 0 1 -10.76-.8 45 45 0 0 0 -1.94-15.39 44.4 44.4 0 0 0 -3.11-7.54z" fill="#f1dad5"></path><path d="m207.47 270.3h.8l-.57-.86 8.07-9.38c.86-1.17 4.84-6.23 3.56-7.68s-5.78.14-8.63 1.88c-6.35 3.86-8.44 11.2-9.17 14.86.12.69.29 1.54.54 2.51a10.67 10.67 0 0 1 5.4-1.33z" fill="#2db07c"></path><path d="m249.12 254.93q0-3.7 0-7.4a65.77 65.77 0 0 1 -8.92 2.15 83.05 83.05 0 0 1 -9.1.93c-5.37.35-13.47.6-17.45 2.06a15.51 15.51 0 0 0 -4 2.22l-1.39 1.2a44.4 44.4 0 0 1 3.1 7.51 45 45 0 0 1 1.98 15.4 69.32 69.32 0 0 0 10.76.8c8.59 0 11.56-1.84 11.56-1.84a46.8 46.8 0 0 1 0-9.15c.32-2.87.8-3.89.3-5.89a9.51 9.51 0 0 0 -1.49-3.18 80.43 80.43 0 0 0 11.64-3.58c.89-.35 1.89-.75 3.01-1.23z" fill="url(#i)"></path><path d="m220.35 232.76a8.41 8.41 0 0 1 .74 4.9c-.22 2.55 1 3.64 1.85 7.83.58 2.92.87 4.38.3 5.54-1.71 3.47-9.38 5-11.87 1.66-1.39-1.85-.69-4.57-.4-5.5a12.18 12.18 0 0 1 -1.13-6.37 11.16 11.16 0 0 1 .4-2c.81-2.65 5.05-7.35 10.11-6.06z" fill="#172b4d"></path><path d="m6.89 422.06.39 5.54 5.51-1.22-.42-4.32z" fill="#b5917c"></path><path d="m78.52 394.3a6.62 6.62 0 0 0 -.52 2.2 3 3 0 0 0 .51 1.68c1.05 1.35 4 1.12 5.68-.1a6.55 6.55 0 0 0 1.68-2c.75-1.15.67-1.52.58-1.7a1.11 1.11 0 0 0 -.78-.5c.68-.73.75-1.16.65-1.42-.18-.5-1.11-.87-1.11-.87.05-.15.39-1.13 0-1.43-.13-.1-.3-.09-1 .06-1.34.28-1.3.36-1.54.33-.82-.13-.93-1.07-1.65-1.09a1.41 1.41 0 0 0 -1 .53c-.5.49-.52 1-.89 2.25-.21.97-.21.76-.61 2.06z" fill="#b5917c"></path><path d="m13.36 427c-1.09-1.31-1.4-1.52-1.62-1.65a3.1 3.1 0 0 0 -1.73-.51c-1.75.14-3.2 2.77-3.12 4.94a6.73 6.73 0 0 0 .76 2.57c.56 1.29.93 1.43 1.14 1.46a1.14 1.14 0 0 0 .86-.39c.24 1 .57 1.29.85 1.36.53.12 1.37-.46 1.37-.46s.75 1 1.22.81c.16-.05.25-.21.53-.91.52-1.31.42-1.32.59-1.51.57-.63 1.45-.2 1.86-.8a1.45 1.45 0 0 0 .09-1.13c-.15-.7-.53-1-1.43-2-.66-.78-.48-.66-1.37-1.78z" fill="#b5917c"></path><path d="m39.64 419.78c10.43 10.92 11.62 18.87 10.92 23.94-.8 5.84-4.24 8.85-12 21.11-4.56 7.17-7.93 13.27-10.11 17.44l-5-2.91a32.82 32.82 0 0 0 2.15-12.47 16.81 16.81 0 0 1 .68-6.37 24.39 24.39 0 0 1 1.9-3.95c2.26-4.2 4.3-7.41 5.5-9.2.9-1.34 1.65-2.45 2.18-3.21-1-1.82-3.1-5.61-5.81-10.6-4.16-7.64-6.23-11.55-5.8-16.45a16.35 16.35 0 0 1 .61-3.22 29.14 29.14 0 0 0 14.77 5.9z" fill="url(#j)"></path><path d="m39 392.32c1.44 3.21 2.5 5.9 5.16 8.72a23.18 23.18 0 0 0 9.08 5.89 37.65 37.65 0 0 0 11.48-.34 38.29 38.29 0 0 0 16.53-7.59l-3.25-4.47a97.59 97.59 0 0 1 -23.19 2.86c-3.79-5.66-6.43-9.93-8.24-13-1.37-2.3-3-5.25-6.08-5.84-.7-.13-2.51-.48-3.61.45-2.81 2.38 1.12 11.06 2.12 13.32z" fill="#ffc400"></path><path d="m30.52 395.15-1.6 26.91 17.27-2.41c1.71-4.8 1.41-7.89.76-9.86a12.53 12.53 0 0 1 -.6-2.07 12.26 12.26 0 0 1 1-7c1-2.43 1.48-6.9-.68-15.82a8.86 8.86 0 0 0 -1.14-2.79c-2.86-4.55-9-4.79-9.89-4.81l-.23 3.83a3.87 3.87 0 0 0 -3.77 3.46z" fill="#ffc400"></path><path d="m37.77 378.34a5.2 5.2 0 0 1 2.61.73c2.3 1.42 3 5.29 3.21 6.88 1 8.93.38 27.63.34 28.67l-19.63 2 1.31-32.21 2.57-3.15a8 8 0 0 1 6.45-3z" fill="#ffe380"></path><path d="m31.79 373.07c-.3.55.55 1.64.2 3.62a6.12 6.12 0 0 1 -.35 1.23 11.88 11.88 0 0 0 5.36 1.8 11.74 11.74 0 0 0 3.87-.33q.86-4.74.86-4.74v.28c-7.64-2.61-9.6-2.49-9.94-1.86z" fill="#9c7761"></path><path d="m41 358.29c.41.88.81 1.85 1.19 2.92a31.81 31.81 0 0 1 1.13 4.08c.13.21.35.56.67 1 1 1.28 1.9 2 1.7 2.37 0 0-1 .52-1.1.68-.32.33.2 3.48-.34 4.83-.78 2-9.15 4.85-12 .36a14.05 14.05 0 0 1 -1.9-2.88 3.26 3.26 0 0 0 1.13-.44 4.15 4.15 0 0 0 1.53-1.9c.73-1.64 2.56-5.78 5.18-7.52a7 7 0 0 0 1.68-1.43 6.73 6.73 0 0 0 1.13-2.07z" fill="#b5917c"></path><path d="m38.44 361.87c.92 4.37.68 5.61.21 5.81-.23.1-.42-.08-1.93-.68-1.79-.71-2.05-.68-2.19-.56-.43.35.06 1.63.28 2.14l-2.73 3.24a2.76 2.76 0 0 1 -.19 1.89 2.24 2.24 0 0 1 -.16.25 14 14 0 0 1 -1.54-1.24c-2.46-2.28-5.61-6.88-4.1-10.47a5.32 5.32 0 0 1 1.42-1.92 7.23 7.23 0 0 1 .59-.48c2.43-1.77 9.35-2.47 12.15-4 .22-.12.84-.49 1.34-.26s.64 1 .68 1.5a8.93 8.93 0 0 1 -3.82 4.84z" fill="#253858"></path><path d="m85.58 428.47c-.74-1.69-2-2.44-3.62-3.84a30.38 30.38 0 0 1 -6.4-7.84 13.52 13.52 0 0 0 -11.89-5.15l-.71.07-38.73 5.4.12.84a12.69 12.69 0 0 0 1.09 3.66 13.24 13.24 0 0 0 3.84 4.72 19.27 19.27 0 0 0 9.61 3.92c6.85 1 11.61-1 19.41-3.06 1.65-.44 3.59-.93 5.79-1.42q2.37 3.37 4.73 6.52c1.17 1.51 3.39 4.39 5.55 5.64.73.42 3.1 1.62 7.25.6l3.38-2.62c.88-2.05 1.71-4.91.58-7.44z" fill="url(#k)"></path><path d="m103.53 441.26c-2.28 2.71-7.15 8.68-8.88 8.28a1 1 0 0 0 -.8.08c-.26.22-.21.64-.23.87 0 .52-.46 1.23-2.21 2.06a1.2 1.2 0 0 1 -.81.33 1 1 0 0 1 -.76-.32l-3.07-3.29a1.87 1.87 0 0 1 .21-2.63 7.94 7.94 0 0 0 1.42-1.54c1.27-1.8 1-3.13 2-3.65s1.62.35 3.14.69a14.38 14.38 0 0 0 2-.27 15.53 15.53 0 0 0 7.08-3.65l2.12 1.67z" fill="#505f79"></path><path d="m76.19 439.1 11.42 11.09 6.56-6.2-8.39-14.61z" fill="#505f79"></path><path d="m40.25 489.22c-3.54 0-11.25 0-12-1.61 0-.06-.22-.5-.57-.56s-.63.24-.82.38c-.42.3-1.24.43-3-.4a1.2 1.2 0 0 1 -.77-.42 1 1 0 0 1 -.24-.79l.59-4.46a1.87 1.87 0 0 1 2.16-1.51 7.94 7.94 0 0 0 2.09.12c2.2-.17 3.09-1.18 4.07-.79s.76 1.47 1.46 2.86a14.38 14.38 0 0 0 1.46 1.35 15.53 15.53 0 0 0 7.32 3.16l.05 2.7z" fill="#505f79"></path><path d="m24.56 466.72-1.31 15.87 8.95 1.13 5.96-15.76z" fill="#505f79"></path><path d="m24 391.29c-.62 6.25-1.52 8.56-1.76 13a40.22 40.22 0 0 0 1.28 12.26 11.72 11.72 0 0 0 1.78 1c4.75 2.06 9.64.39 11.67-.45q.36-1.91.69-3.86a156.57 156.57 0 0 0 1.92-32 3.87 3.87 0 0 0 -3.94-3.92l-6 .11a5.33 5.33 0 0 0 -5.2 4.77 87 87 0 0 1 -.44 9.09z" fill="#ffc400"></path><path d="m34.63 378.24c-.42-1.32-12.1-2-23.16 5.82-2.41 1.7-10.77 7.55-11.47 16.39v.47a20.54 20.54 0 0 0 1.17 7.08c1.29 4.06 2.11 4.54 2.53 7.59.15 1.09.07 1.2.21 2.24a18.2 18.2 0 0 0 2.45 7l3.43-.31c1.32-.13 2.64-.26 3.43-.31q-.48-7.5-1.34-15.49-.53-4.87-1.17-9.53c5.25-2.71 9.36-4.74 11.86-6 6.46-3.16 10.87-5.15 10.87-8 0-1.38-1.08-2.58-.47-4.48.54-1.59 1.8-2.03 1.66-2.47z" fill="#ffc400"></path><path d="m171.09 104.81v204.44l-23.08-1.84v-200.66z" fill="#0065ff"></path><path d="m166.46 122.7c0 4.35-3.14 8-7 8.17s-6.85-3.18-6.85-7.46 3.05-7.93 6.85-8.16 7 3.1 7 7.45z" fill="#fff"></path></svg>
